<svg width="21" height="21" viewBox="0 0 21 21" fill="none" xmlns="http://www.w3.org/2000/svg">
<mask id="path-1-inside-1_79_759" fill="white">
<path d="M19.247 5.41633H20.0026V5.13998L19.782 4.94373L19.247 5.41633ZM14.7132 1.4112L15.2482 0.938599L15.026 0.743683H14.7132V1.4112ZM10.1794 6.75138L10.7839 6.35086C10.6888 6.23878 10.5561 6.15599 10.4047 6.11422C10.2533 6.07244 10.0909 6.0738 9.94045 6.11811C9.79 6.16241 9.65914 6.24741 9.56641 6.36107C9.47367 6.47472 9.42377 6.61127 9.42377 6.75138H10.1794ZM10.6328 7.28539L11.2373 6.88488L10.6328 7.28539ZM17.7357 19.4343H2.62309V20.7693H17.7357V19.4343ZM1.86746 18.7668V2.74625H0.356201V18.7668H1.86746ZM18.4913 5.41633V18.7668H20.0026V5.41633H18.4913ZM2.62309 2.07873H14.7132V0.743683H2.62309V2.07873ZM14.1782 1.88381L18.712 5.88894L19.782 4.94373L15.2482 0.938599L14.1782 1.88381ZM2.62309 19.4343C2.42269 19.4343 2.23049 19.364 2.08878 19.2388C1.94707 19.1136 1.86746 18.9438 1.86746 18.7668H0.356201C0.356201 19.2979 0.595034 19.8072 1.02016 20.1828C1.44528 20.5583 2.02188 20.7693 2.62309 20.7693V19.4343ZM17.7357 20.7693C18.3369 20.7693 18.9135 20.5583 19.3387 20.1828C19.7638 19.8072 20.0026 19.2979 20.0026 18.7668H18.4913C18.4913 18.9438 18.4117 19.1136 18.27 19.2388C18.1283 19.364 17.9361 19.4343 17.7357 19.4343V20.7693ZM1.86746 2.74625C1.86746 2.56921 1.94707 2.39942 2.08878 2.27424C2.23049 2.14905 2.42269 2.07873 2.62309 2.07873V0.743683C2.02188 0.743683 1.44528 0.954667 1.02016 1.33022C0.595034 1.70577 0.356201 2.21513 0.356201 2.74625H1.86746ZM7.91251 15.4292C7.5117 15.4292 7.12731 15.2885 6.84389 15.0381C6.56047 14.7878 6.40125 14.4482 6.40125 14.0941H4.88999C4.88999 14.8023 5.20843 15.4814 5.77526 15.9821C6.3421 16.4829 7.11089 16.7642 7.91251 16.7642V15.4292ZM9.42377 14.0941C9.42377 14.4482 9.26455 14.7878 8.98114 15.0381C8.69772 15.2885 8.31332 15.4292 7.91251 15.4292V16.7642C8.71414 16.7642 9.48293 16.4829 10.0498 15.9821C10.6166 15.4814 10.935 14.8023 10.935 14.0941H9.42377ZM7.91251 12.7591C8.31332 12.7591 8.69772 12.8997 8.98114 13.1501C9.26455 13.4005 9.42377 13.74 9.42377 14.0941H10.935C10.935 13.386 10.6166 12.7068 10.0498 12.2061C9.48293 11.7053 8.71414 11.424 7.91251 11.424V12.7591ZM7.91251 11.424C7.11089 11.424 6.3421 11.7053 5.77526 12.2061C5.20843 12.7068 4.88999 13.386 4.88999 14.0941H6.40125C6.40125 13.74 6.56047 13.4005 6.84389 13.1501C7.12731 12.8997 7.5117 12.7591 7.91251 12.7591V11.424ZM9.42377 9.42146V14.0941H10.935V9.42146H9.42377ZM10.935 10.089V6.75138H9.42377V10.089H10.935ZM9.5749 7.15189L10.0283 7.6859L11.2373 6.88488L10.7839 6.35086L9.5749 7.15189ZM10.0283 7.6859C10.6617 8.43204 11.4832 9.03763 12.4275 9.45473C13.3718 9.87183 14.4131 10.089 15.4688 10.089V8.75394C14.6477 8.75394 13.8378 8.58505 13.1033 8.26063C12.3689 7.93622 11.73 7.4652 11.2373 6.88488L10.0283 7.6859Z"/>
</mask>
<path d="M19.247 5.41633H20.0026V5.13998L19.782 4.94373L19.247 5.41633ZM14.7132 1.4112L15.2482 0.938599L15.026 0.743683H14.7132V1.4112ZM10.1794 6.75138L10.7839 6.35086C10.6888 6.23878 10.5561 6.15599 10.4047 6.11422C10.2533 6.07244 10.0909 6.0738 9.94045 6.11811C9.79 6.16241 9.65914 6.24741 9.56641 6.36107C9.47367 6.47472 9.42377 6.61127 9.42377 6.75138H10.1794ZM10.6328 7.28539L11.2373 6.88488L10.6328 7.28539ZM17.7357 19.4343H2.62309V20.7693H17.7357V19.4343ZM1.86746 18.7668V2.74625H0.356201V18.7668H1.86746ZM18.4913 5.41633V18.7668H20.0026V5.41633H18.4913ZM2.62309 2.07873H14.7132V0.743683H2.62309V2.07873ZM14.1782 1.88381L18.712 5.88894L19.782 4.94373L15.2482 0.938599L14.1782 1.88381ZM2.62309 19.4343C2.42269 19.4343 2.23049 19.364 2.08878 19.2388C1.94707 19.1136 1.86746 18.9438 1.86746 18.7668H0.356201C0.356201 19.2979 0.595034 19.8072 1.02016 20.1828C1.44528 20.5583 2.02188 20.7693 2.62309 20.7693V19.4343ZM17.7357 20.7693C18.3369 20.7693 18.9135 20.5583 19.3387 20.1828C19.7638 19.8072 20.0026 19.2979 20.0026 18.7668H18.4913C18.4913 18.9438 18.4117 19.1136 18.27 19.2388C18.1283 19.364 17.9361 19.4343 17.7357 19.4343V20.7693ZM1.86746 2.74625C1.86746 2.56921 1.94707 2.39942 2.08878 2.27424C2.23049 2.14905 2.42269 2.07873 2.62309 2.07873V0.743683C2.02188 0.743683 1.44528 0.954667 1.02016 1.33022C0.595034 1.70577 0.356201 2.21513 0.356201 2.74625H1.86746ZM7.91251 15.4292C7.5117 15.4292 7.12731 15.2885 6.84389 15.0381C6.56047 14.7878 6.40125 14.4482 6.40125 14.0941H4.88999C4.88999 14.8023 5.20843 15.4814 5.77526 15.9821C6.3421 16.4829 7.11089 16.7642 7.91251 16.7642V15.4292ZM9.42377 14.0941C9.42377 14.4482 9.26455 14.7878 8.98114 15.0381C8.69772 15.2885 8.31332 15.4292 7.91251 15.4292V16.7642C8.71414 16.7642 9.48293 16.4829 10.0498 15.9821C10.6166 15.4814 10.935 14.8023 10.935 14.0941H9.42377ZM7.91251 12.7591C8.31332 12.7591 8.69772 12.8997 8.98114 13.1501C9.26455 13.4005 9.42377 13.74 9.42377 14.0941H10.935C10.935 13.386 10.6166 12.7068 10.0498 12.2061C9.48293 11.7053 8.71414 11.424 7.91251 11.424V12.7591ZM7.91251 11.424C7.11089 11.424 6.3421 11.7053 5.77526 12.2061C5.20843 12.7068 4.88999 13.386 4.88999 14.0941H6.40125C6.40125 13.74 6.56047 13.4005 6.84389 13.1501C7.12731 12.8997 7.5117 12.7591 7.91251 12.7591V11.424ZM9.42377 9.42146V14.0941H10.935V9.42146H9.42377ZM10.935 10.089V6.75138H9.42377V10.089H10.935ZM9.5749 7.15189L10.0283 7.6859L11.2373 6.88488L10.7839 6.35086L9.5749 7.15189ZM10.0283 7.6859C10.6617 8.43204 11.4832 9.03763 12.4275 9.45473C13.3718 9.87183 14.4131 10.089 15.4688 10.089V8.75394C14.6477 8.75394 13.8378 8.58505 13.1033 8.26063C12.3689 7.93622 11.73 7.4652 11.2373 6.88488L10.0283 7.6859Z" fill="url(#paint0_linear_79_759)" stroke="#FFF3F3" stroke-width="2" mask="url(#path-1-inside-1_79_759)"/>
<defs>
<linearGradient id="paint0_linear_79_759" x1="10.1794" y1="0.743683" x2="10.1794" y2="20.7693" gradientUnits="userSpaceOnUse">
<stop stop-color="#E35D30"/>
<stop offset="0.755208" stop-color="#F3632D"/>
<stop offset="1" stop-color="#F5421D" stop-opacity="0.43"/>
</linearGradient>
</defs>
</svg>
