<svg width="17" height="15" viewBox="0 0 17 15" fill="none" xmlns="http://www.w3.org/2000/svg">
<path d="M12.249 0.548712C12.249 0.403184 12.3115 0.263617 12.4229 0.160714C12.5343 0.0578105 12.6853 0 12.8428 0C13.0003 0 13.1514 0.0578105 13.2628 0.160714C13.3741 0.263617 13.4367 0.403184 13.4367 0.548712V3.29227H16.4061C16.5636 3.29227 16.7147 3.35008 16.8261 3.45299C16.9374 3.55589 17 3.69546 17 3.84098C17 3.98651 16.9374 4.12608 16.8261 4.22898C16.7147 4.33188 16.5636 4.38969 16.4061 4.38969H13.4367V7.13325C13.4367 7.27878 13.3741 7.41835 13.2628 7.52125C13.1514 7.62416 13.0003 7.68197 12.8428 7.68197C12.6853 7.68197 12.5343 7.62416 12.4229 7.52125C12.3115 7.41835 12.249 7.27878 12.249 7.13325V4.38969H9.27955C9.12205 4.38969 8.97099 4.33188 8.85962 4.22898C8.74824 4.12608 8.68567 3.98651 8.68567 3.84098C8.68567 3.69546 8.74824 3.55589 8.85962 3.45299C8.97099 3.35008 9.12205 3.29227 9.27955 3.29227H12.249V0.548712ZM3.6555 1.59785C2.04609 2.05218 0.992544 3.29447 1.21941 4.67283C1.50145 6.36992 2.12768 8.00257 3.06519 9.48503C3.99515 10.9686 5.21269 12.2814 6.65698 13.3578C7.83524 14.2325 9.52898 14.0163 10.7607 12.954C10.9774 12.7672 11.1089 12.5112 11.1286 12.238C11.1482 11.9649 11.0545 11.695 10.8664 11.4834L9.92569 10.4277C9.77523 10.259 9.57364 10.1356 9.34678 10.0734C9.11992 10.0113 8.87813 10.0131 8.65242 10.0787L6.66529 10.656C6.56743 10.6844 6.46325 10.689 6.36292 10.6692C6.26259 10.6494 6.16952 10.6059 6.09279 10.5429L6.04528 10.5034C5.87204 10.3518 5.70562 10.1936 5.54642 10.0294C5.15179 9.62677 4.80312 9.18767 4.50594 8.71903C4.09631 8.05449 3.7923 7.33896 3.60324 6.59442L3.58899 6.53735C3.56829 6.44429 3.57404 6.34787 3.60568 6.25747C3.63732 6.16708 3.69377 6.0858 3.76953 6.02156L5.30412 4.72112C5.47852 4.57319 5.6011 4.38049 5.65612 4.16775C5.71115 3.955 5.69611 3.73191 5.61294 3.52712L5.09745 2.25411C4.99261 1.99573 4.78509 1.784 4.51718 1.66207C4.24926 1.54013 3.94111 1.51717 3.6555 1.59785ZM6.10823 5.52992L4.83495 6.60978C5.00205 7.15338 5.23723 7.6771 5.53573 8.17032C5.84526 8.65785 6.21866 9.10826 6.64747 9.51137L8.29728 9.0318C8.74871 8.90053 9.23229 8.89683 9.68601 9.02119C10.1397 9.14554 10.5429 9.39228 10.8438 9.72976L11.7845 10.7855C12.1651 11.2128 12.355 11.7581 12.3155 12.3103C12.276 12.8625 12.0101 13.38 11.5719 13.7573C10.0397 15.0764 7.68083 15.5242 5.91344 14.2127C4.3556 13.0523 3.04223 11.6368 2.03896 10.037C1.02642 8.43515 0.350224 6.67107 0.0458979 4.83744C-0.29499 2.7688 1.30968 1.11279 3.30868 0.548712C3.88336 0.386274 4.50344 0.432404 5.04259 0.677702C5.58174 0.922999 5.99937 1.34901 6.21038 1.86891L6.72587 3.14192C6.89222 3.55151 6.9223 3.99768 6.81225 4.42318C6.7022 4.84867 6.45704 5.23407 6.10823 5.52992Z" fill="#FF4B26"/>
</svg>
