<svg width="22" height="19" viewBox="0 0 22 19" fill="none" xmlns="http://www.w3.org/2000/svg">
<path d="M13.4029 2.51001L15.3803 4.5328H19.7566V16.6695H2.46775V4.5328H6.84398L8.82139 2.51001H13.4029ZM14.3538 0.487213H7.87051L5.8931 2.51001H2.46775C1.27914 2.51001 0.306641 3.42026 0.306641 4.5328V16.6695C0.306641 17.7821 1.27914 18.6923 2.46775 18.6923H19.7566C20.9452 18.6923 21.9177 17.7821 21.9177 16.6695V4.5328C21.9177 3.42026 20.9452 2.51001 19.7566 2.51001H16.3312L14.3538 0.487213ZM11.1122 7.56699C12.8951 7.56699 14.3538 8.93237 14.3538 10.6012C14.3538 12.27 12.8951 13.6354 11.1122 13.6354C9.32925 13.6354 7.87051 12.27 7.87051 10.6012C7.87051 8.93237 9.32925 7.56699 11.1122 7.56699ZM11.1122 5.54419C8.12984 5.54419 5.7094 7.80972 5.7094 10.6012C5.7094 13.3926 8.12984 15.6582 11.1122 15.6582C14.0945 15.6582 16.5149 13.3926 16.5149 10.6012C16.5149 7.80972 14.0945 5.54419 11.1122 5.54419Z" fill="#FFF3F3"/>
</svg>
