<svg width="21" height="21" viewBox="0 0 21 21" fill="none" xmlns="http://www.w3.org/2000/svg">
<path d="M1.69961 4.37672L1.70023 4.37614C1.98914 4.10797 2.32881 3.97445 2.74711 3.97445H18.4642C18.8826 3.97445 19.2227 4.10799 19.5124 4.37643C19.8001 4.64302 19.9289 4.94072 19.9289 5.29496V16.218C19.9289 16.5722 19.8002 16.8703 19.5124 17.1375C19.2228 17.4052 18.8827 17.5386 18.4642 17.5386H2.74711C2.32856 17.5386 1.98879 17.4052 1.69992 17.1375C1.41137 16.8701 1.28247 16.572 1.28247 16.218V5.29496C1.28247 4.94102 1.41133 4.6434 1.69961 4.37672ZM4.46617 16.718H4.6944L4.84392 16.5456C5.53309 15.7509 6.36774 15.1257 7.35319 14.6691C8.32928 14.2169 9.41089 13.9873 10.6057 13.9873C11.8005 13.9873 12.8821 14.2169 13.8582 14.6691C14.8436 15.1257 15.6783 15.7509 16.3674 16.5456L16.517 16.718H16.7452H18.4642H18.9642V16.218V5.29496V4.79496H18.4642H2.74711H2.24711V5.29496V16.218V16.718H2.74711H4.46617ZM7.09477 15.7967L5.6531 16.718H7.36402H13.8473H15.5582L14.1166 15.7967C13.5994 15.4662 13.0421 15.2183 12.4463 15.0535L12.4462 15.0534C11.8525 14.8893 11.2385 14.8078 10.6057 14.8078C9.97291 14.8078 9.35924 14.8893 8.76616 15.0534C8.16977 15.2183 7.61207 15.4661 7.09477 15.7967ZM11.6466 7.92081L11.6453 7.91964C11.3562 7.65267 10.9982 7.52573 10.6057 7.52573C10.2132 7.52573 9.85514 7.65269 9.56642 7.92023C9.27535 8.18994 9.12335 8.53935 9.12335 8.93599C9.12335 9.33245 9.27524 9.68173 9.56656 9.95097C9.85507 10.2189 10.213 10.3462 10.6057 10.3462C10.9987 10.3462 11.3569 10.2187 11.6459 9.95084C11.9367 9.68136 12.088 9.33208 12.088 8.93599C12.088 8.53994 11.9368 8.19071 11.6466 7.92081ZM3.24711 20.2693V19.4488H17.9642V20.2693H3.24711ZM3.24711 2.0642V1.24368H17.9642V2.0642H3.24711ZM12.3533 10.5035C11.8774 10.9445 11.3049 11.1668 10.6057 11.1668C9.90646 11.1668 9.33391 10.9445 8.85809 10.5035C8.38373 10.064 8.15871 9.55068 8.15871 8.93599C8.15871 8.3213 8.38373 7.80801 8.85809 7.36845C9.33391 6.92753 9.90646 6.70522 10.6057 6.70522C11.3049 6.70522 11.8774 6.92753 12.3533 7.36845C12.8276 7.80801 13.0526 8.3213 13.0526 8.93599C13.0526 9.55068 12.8276 10.064 12.3533 10.5035Z" fill="black" stroke="#FFF3F3"/>
</svg>
