<svg width="21" height="20" viewBox="0 0 21 20" fill="none" xmlns="http://www.w3.org/2000/svg">
<path d="M2.60265 18.2808H8.24216V19.1924H2.60265C2.16277 19.1924 1.80421 19.0509 1.49912 18.7659C1.19421 18.4811 1.05615 18.1613 1.05615 17.7808V2.48853C1.05615 2.10813 1.19421 1.78824 1.49912 1.50343C1.80421 1.21846 2.16278 1.077 2.60265 1.077H10.5915L16.4282 6.52877V9.63469H15.3817V7.26738V6.76738H14.8817H10.2654V2.48853V1.98853H9.76541H2.60265H2.10265V2.48853V17.7808V18.2808H2.60265ZM15.1886 13.2322L15.5549 13.5743L11.9834 16.8887L11.8235 17.0371V17.2552V18.2587V18.7587H12.3235H13.3979H13.5942L13.7381 18.6252L17.3619 15.2622L17.705 15.5826L13.8403 19.1924H11.2887V16.875L15.1886 13.2322ZM19.5799 13.8313L18.4375 14.8984L17.7043 14.2136L17.3641 13.8959L17.0224 13.5766L16.6299 13.2101L15.9211 12.548L17.0136 11.5275C17.0965 11.4502 17.2077 11.3993 17.3886 11.3993C17.5695 11.3993 17.6808 11.4502 17.7636 11.5275L19.5799 13.224C19.6601 13.299 19.7026 13.3868 19.7026 13.5277C19.7026 13.6685 19.6601 13.7563 19.5799 13.8313Z" fill="black" stroke="#FFF3F3"/>
</svg>
