<svg width="16" height="16" viewBox="0 0 16 16" fill="none" xmlns="http://www.w3.org/2000/svg">
<path fill-rule="evenodd" clip-rule="evenodd" d="M14.5 8C14.5 9.72391 13.8152 11.3772 12.5962 12.5962C11.3772 13.8152 9.72391 14.5 8 14.5C6.27609 14.5 4.62279 13.8152 3.40381 12.5962C2.18482 11.3772 1.5 9.72391 1.5 8C1.5 6.27609 2.18482 4.62279 3.40381 3.40381C4.62279 2.18482 6.27609 1.5 8 1.5C9.72391 1.5 11.3772 2.18482 12.5962 3.40381C13.8152 4.62279 14.5 6.27609 14.5 8ZM16 8C16 10.1217 15.1571 12.1566 13.6569 13.6569C12.1566 15.1571 10.1217 16 8 16C5.87827 16 3.84344 15.1571 2.34315 13.6569C0.842855 12.1566 0 10.1217 0 8C0 5.87827 0.842855 3.84344 2.34315 2.34315C3.84344 0.842855 5.87827 0 8 0C10.1217 0 12.1566 0.842855 13.6569 2.34315C15.1571 3.84344 16 5.87827 16 8ZM5.252 4.7C5.59646 4.50181 6.00549 4.44842 6.38928 4.55154C6.77307 4.65466 7.10026 4.90586 7.299 5.25C7.36426 5.36478 7.38147 5.50071 7.34687 5.62813C7.31228 5.75555 7.22869 5.86412 7.11435 5.93014C7 5.99616 6.86419 6.01427 6.73654 5.98052C6.60889 5.94677 6.49978 5.8639 6.433 5.75C6.38914 5.67418 6.32612 5.61121 6.25027 5.56741C6.17441 5.5236 6.08838 5.50049 6.00079 5.50039C5.91319 5.50028 5.82711 5.5232 5.75115 5.56683C5.6752 5.61046 5.61204 5.67328 5.568 5.749C5.50143 5.86371 5.39202 5.94727 5.26384 5.98131C5.13566 6.01535 4.99921 5.99707 4.8845 5.9305C4.76979 5.86393 4.68623 5.75452 4.65219 5.62634C4.61815 5.49816 4.63643 5.36171 4.703 5.247C4.8352 5.0196 5.02488 4.83096 5.253 4.7H5.252ZM8 12C9.06087 12 10.0783 11.5786 10.8284 10.8284C11.5786 10.0783 12 9.06087 12 8H4C4 9.06087 4.42143 10.0783 5.17157 10.8284C5.92172 11.5786 6.93913 12 8 12ZM9.252 4.7C9.59646 4.50181 10.0055 4.44842 10.3893 4.55154C10.7731 4.65466 11.1003 4.90586 11.299 5.25C11.3323 5.30689 11.3541 5.36981 11.363 5.43514C11.372 5.50047 11.3679 5.56692 11.351 5.63067C11.3342 5.69442 11.3049 5.75421 11.2648 5.80659C11.2248 5.85897 11.1748 5.90291 11.1177 5.93588C11.0606 5.96885 10.9975 5.9902 10.9321 5.9987C10.8667 6.0072 10.8003 6.00268 10.7367 5.9854C10.673 5.96813 10.6134 5.93843 10.5613 5.89803C10.5092 5.85763 10.4656 5.80732 10.433 5.75C10.3891 5.67418 10.3261 5.61121 10.2503 5.56741C10.1744 5.5236 10.0884 5.50049 10.0008 5.50039C9.91319 5.50028 9.82711 5.5232 9.75115 5.56683C9.6752 5.61046 9.61204 5.67328 9.568 5.749C9.50143 5.86371 9.39202 5.94727 9.26384 5.98131C9.13566 6.01535 8.99921 5.99707 8.8845 5.9305C8.76979 5.86393 8.68623 5.75452 8.65219 5.62634C8.61815 5.49816 8.63643 5.36171 8.703 5.247C8.8352 5.0196 9.02488 4.83096 9.253 4.7H9.252Z" fill="#FF4B26"/>
</svg>
