<svg width="21" height="16" viewBox="0 0 21 16" fill="none" xmlns="http://www.w3.org/2000/svg">
<path d="M15.0837 1.20932C15.6464 1.20932 16.1965 1.36411 16.6643 1.65411C17.1322 1.94412 17.4969 2.35631 17.7122 2.83857C17.9276 3.32083 17.9839 3.8515 17.8741 4.36346C17.7643 4.87543 17.4934 5.3457 17.0955 5.7148C16.6976 6.08391 16.1906 6.33527 15.6387 6.43711C15.0868 6.53895 14.5148 6.48668 13.9949 6.28692C13.475 6.08716 13.0307 5.74888 12.718 5.31486C12.4054 4.88084 12.2385 4.37057 12.2385 3.84857C12.2385 3.1486 12.5383 2.47729 13.0719 1.98234C13.6054 1.48738 14.3291 1.20932 15.0837 1.20932ZM7.87857 6.4524L12.474 10.7153C12.5155 10.7546 12.565 10.7858 12.6197 10.8071C12.6743 10.8284 12.733 10.8394 12.7923 10.8394C12.8516 10.8394 12.9102 10.8284 12.9649 10.8071C13.0195 10.7858 13.0691 10.7546 13.1105 10.7153L13.9889 9.90055C14.0735 9.82267 14.1879 9.77897 14.3071 9.77897C14.4264 9.77897 14.5408 9.82267 14.6254 9.90055L19.5964 14.5119C19.66 14.5697 19.7035 14.6438 19.7213 14.7248C19.739 14.8058 19.7302 14.8898 19.6959 14.9661C19.6616 15.0423 19.6035 15.1073 19.5291 15.1527C19.4546 15.198 19.3672 15.2216 19.2782 15.2204H1.56456C1.48285 15.221 1.40254 15.2007 1.33241 15.1618C1.26227 15.1229 1.20502 15.0669 1.16691 14.9999C1.1288 14.9328 1.1113 14.8573 1.11632 14.7817C1.12135 14.706 1.1487 14.6331 1.1954 14.5709L7.24208 6.52915C7.27773 6.48448 7.32273 6.44693 7.37439 6.41877C7.42605 6.3906 7.48331 6.37239 7.54273 6.36522C7.60215 6.35806 7.66252 6.36208 7.72023 6.37706C7.77793 6.39204 7.83179 6.41766 7.87857 6.4524Z" fill="#B458D6" stroke="#FFFCFC" stroke-linecap="round" stroke-linejoin="round"/>
</svg>
