<svg width="44" height="45" viewBox="0 0 44 45" fill="none" xmlns="http://www.w3.org/2000/svg">
    <g clip-path="url(#clip0_0_94)">
        <path d="M43.979 22.921C43.979 21.0773 43.8293 19.732 43.5053 18.3368H22.4382V26.658H34.8041C34.5549 28.726 33.2086 31.8402 30.2168 33.9329L30.1748 34.2115L36.8359 39.3681L37.2973 39.4141C41.5356 35.5026 43.979 29.7474 43.979 22.921Z" fill="#4285F4"/>
        <path d="M22.4382 44.8454C28.4965 44.8454 33.5824 42.8522 37.2973 39.4141L30.2168 33.9329C28.322 35.2534 25.779 36.1752 22.4382 36.1752C16.5046 36.1752 11.4685 32.2638 9.67325 26.8574L9.41011 26.8798L2.48389 32.2363L2.39331 32.4879C6.08312 39.8126 13.6623 44.8454 22.4382 44.8454Z" fill="#34A853"/>
        <path d="M9.6733 26.8575C9.19961 25.4623 8.92547 23.9674 8.92547 22.4228C8.92547 20.878 9.19961 19.3832 9.64837 17.988L9.63583 17.6909L2.62281 12.2483L2.39336 12.3574C0.872609 15.3969 0 18.8102 0 22.4228C0 26.0353 0.872609 29.4484 2.39336 32.488L9.6733 26.8575Z" fill="#FBBC05"/>
        <path d="M22.4382 8.67006C26.6516 8.67006 29.4937 10.4888 31.1143 12.0086L37.4469 5.82991C33.5577 2.21737 28.4965 0 22.4382 0C13.6623 0 6.08312 5.03261 2.39331 12.3573L9.64833 17.988C11.4685 12.5816 16.5046 8.67006 22.4382 8.67006Z" fill="#EB4335"/>
    </g>
    <defs>
        <clipPath id="clip0_0_94">
            <rect width="44" height="45" fill="white"/>
        </clipPath>
    </defs>
</svg>
