<svg width="20" height="18" viewBox="0 0 20 18" fill="none" xmlns="http://www.w3.org/2000/svg">
    <path d="M18 0H1.99999C0.899985 0 0.00998532 0.9 0.00998532 2L0.0026859 15.171C0.0016859 16.952 2.15509 17.845 3.41459 16.585C3.78939 16.211 4.29779 16 4.82789 16H18C19.1 16 20 15.1 20 14V2C20 0.9 19.1 0 18 0ZM3.99998 8C3.99998 7.448 4.44769 7 4.99999 7H15C15.5523 7 16 7.448 16 8C16 8.552 15.5523 9 15 9H4.99999C4.44769 9 3.99998 8.552 3.99998 8ZM12 11C12 11.552 11.5523 12 11 12H4.99999C4.44769 12 3.99998 11.552 3.99998 11C3.99998 10.448 4.44769 10 4.99999 10H11C11.5523 10 12 10.448 12 11ZM16 5C16 5.552 15.5523 6 15 6H4.99999C4.44769 6 3.99998 5.552 3.99998 5C3.99998 4.448 4.44769 4 4.99999 4H15C15.5523 4 16 4.448 16 5Z" fill="#FFFCFC"/>
</svg>
