<svg width="28" height="20" viewBox="0 0 28 20" fill="none" xmlns="http://www.w3.org/2000/svg">
    <path d="M0 20V17.375C0 16.1528 0.432833 15.1733 1.2985 14.4367C2.16339 13.7011 3.28611 13.3333 4.66667 13.3333C4.91944 13.3333 5.1625 13.34 5.39583 13.3533C5.62917 13.3678 5.85278 13.4028 6.06667 13.4583C5.79444 14.0139 5.59028 14.6111 5.45417 15.25C5.31806 15.8889 5.25 16.5694 5.25 17.2917V20H0ZM7 20V17.2917C7 15.4861 7.64672 14.0278 8.94017 12.9167C10.2328 11.8056 11.9194 11.25 14 11.25C16.1 11.25 17.7917 11.8056 19.075 12.9167C20.3583 14.0278 21 15.4861 21 17.2917V20H7ZM22.75 20V17.2917C22.75 16.5694 22.6866 15.8889 22.5598 15.25C22.4338 14.6111 22.2444 14.0139 21.9917 13.4583C22.2056 13.4028 22.4245 13.3678 22.6485 13.3533C22.8717 13.34 23.1 13.3333 23.3333 13.3333C24.7333 13.3333 25.8611 13.7011 26.7167 14.4367C27.5722 15.1733 28 16.1528 28 17.375V20H22.75ZM4.66667 11.6667C4.025 11.6667 3.47589 11.34 3.01933 10.6867C2.562 10.0344 2.33333 9.25 2.33333 8.33333C2.33333 7.38889 2.562 6.59722 3.01933 5.95833C3.47589 5.31944 4.025 5 4.66667 5C5.32778 5 5.88194 5.31944 6.32917 5.95833C6.77639 6.59722 7 7.38889 7 8.33333C7 9.25 6.77639 10.0344 6.32917 10.6867C5.88194 11.34 5.32778 11.6667 4.66667 11.6667ZM23.3333 11.6667C22.6917 11.6667 22.1422 11.34 21.6848 10.6867C21.2283 10.0344 21 9.25 21 8.33333C21 7.38889 21.2283 6.59722 21.6848 5.95833C22.1422 5.31944 22.6917 5 23.3333 5C23.9944 5 24.5486 5.31944 24.9958 5.95833C25.4431 6.59722 25.6667 7.38889 25.6667 8.33333C25.6667 9.25 25.4431 10.0344 24.9958 10.6867C24.5486 11.34 23.9944 11.6667 23.3333 11.6667ZM14 10C13.0278 10 12.2014 9.51389 11.5208 8.54167C10.8403 7.56944 10.5 6.38889 10.5 5C10.5 3.58333 10.8403 2.39556 11.5208 1.43667C12.2014 0.478889 13.0278 0 14 0C14.9917 0 15.8227 0.478889 16.4932 1.43667C17.1644 2.39556 17.5 3.58333 17.5 5C17.5 6.38889 17.1644 7.56944 16.4932 8.54167C15.8227 9.51389 14.9917 10 14 10Z" fill="#FFFCFC"/>
</svg>
