<svg width="16" height="15" viewBox="0 0 16 15" fill="none" xmlns="http://www.w3.org/2000/svg">
    <path d="M4.44444 9C4.19259 9 3.98133 8.928 3.81067 8.784C3.64059 8.6405 3.55556 8.4625 3.55556 8.25C3.55556 8.0375 3.64059 7.85925 3.81067 7.71525C3.98133 7.57175 4.19259 7.5 4.44444 7.5C4.6963 7.5 4.90756 7.57175 5.07822 7.71525C5.2483 7.85925 5.33333 8.0375 5.33333 8.25C5.33333 8.4625 5.2483 8.6405 5.07822 8.784C4.90756 8.928 4.6963 9 4.44444 9ZM8 9C7.74815 9 7.53719 8.928 7.36711 8.784C7.19644 8.6405 7.11111 8.4625 7.11111 8.25C7.11111 8.0375 7.19644 7.85925 7.36711 7.71525C7.53719 7.57175 7.74815 7.5 8 7.5C8.25185 7.5 8.46311 7.57175 8.63378 7.71525C8.80385 7.85925 8.88889 8.0375 8.88889 8.25C8.88889 8.4625 8.80385 8.6405 8.63378 8.784C8.46311 8.928 8.25185 9 8 9ZM11.5556 9C11.3037 9 11.0927 8.928 10.9227 8.784C10.752 8.6405 10.6667 8.4625 10.6667 8.25C10.6667 8.0375 10.752 7.85925 10.9227 7.71525C11.0927 7.57175 11.3037 7.5 11.5556 7.5C11.8074 7.5 12.0184 7.57175 12.1884 7.71525C12.3591 7.85925 12.4444 8.0375 12.4444 8.25C12.4444 8.4625 12.3591 8.6405 12.1884 8.784C12.0184 8.928 11.8074 9 11.5556 9ZM1.77778 15C1.28889 15 0.870222 14.8533 0.521778 14.5597C0.173926 14.2657 0 13.9125 0 13.5V3C0 2.5875 0.173926 2.2345 0.521778 1.941C0.870222 1.647 1.28889 1.5 1.77778 1.5H2.66667V0H4.44444V1.5H11.5556V0H13.3333V1.5H14.2222C14.7111 1.5 15.1298 1.647 15.4782 1.941C15.8261 2.2345 16 2.5875 16 3V13.5C16 13.9125 15.8261 14.2657 15.4782 14.5597C15.1298 14.8533 14.7111 15 14.2222 15H1.77778ZM1.77778 13.5H14.2222V6H1.77778V13.5Z" fill="#5F5A5A"/>
</svg>
