<svg width="60" height="60" viewBox="0 0 60 60" fill="none" xmlns="http://www.w3.org/2000/svg">
    <rect width="60" height="60" rx="30" fill="#5F5A5A"/>
    <path d="M21.2727 40C20.6477 40 20.1129 39.775 19.6682 39.3249C19.2227 38.8741 19 38.3325 19 37.7V23.9C19 23.2675 19.2227 22.7262 19.6682 22.2762C20.1129 21.8254 20.6477 21.6 21.2727 21.6H24.8523L26.9545 19.3H33.7727V23.9H37.1818V27.35H41.7273V37.7C41.7273 38.3325 41.5049 38.8741 41.0602 39.3249C40.6148 39.775 40.0795 40 39.4545 40H21.2727ZM30.3636 35.975C31.7841 35.975 32.9917 35.4721 33.9864 34.4662C34.9803 33.4596 35.4773 32.2375 35.4773 30.8C35.4773 29.3625 34.9803 28.1404 33.9864 27.1338C32.9917 26.1279 31.7841 25.625 30.3636 25.625C28.9432 25.625 27.7356 26.1279 26.7409 27.1338C25.747 28.1404 25.25 29.3625 25.25 30.8C25.25 32.2375 25.747 33.4596 26.7409 34.4662C27.7356 35.4721 28.9432 35.975 30.3636 35.975ZM30.3636 33.675C29.5682 33.675 28.8958 33.3971 28.3466 32.8412C27.7973 32.2854 27.5227 31.605 27.5227 30.8C27.5227 29.995 27.7973 29.3146 28.3466 28.7587C28.8958 28.2029 29.5682 27.925 30.3636 27.925C31.1591 27.925 31.8314 28.2029 32.3807 28.7587C32.9299 29.3146 33.2045 29.995 33.2045 30.8C33.2045 31.605 32.9299 32.2854 32.3807 32.8412C31.8314 33.3971 31.1591 33.675 30.3636 33.675ZM39.4545 23.9V21.6H37.1818V19.3H39.4545V17H41.7273V19.3H44V21.6H41.7273V23.9H39.4545Z" fill="white"/>
</svg>
