<svg width="22" height="18" viewBox="0 0 22 18" fill="none" xmlns="http://www.w3.org/2000/svg">
    <path d="M1.22222 17.5C0.875926 17.5 0.585852 17.364 0.352 17.092C0.117333 16.8209 0 16.4847 0 16.0833C0 15.6819 0.117333 15.3457 0.352 15.0747C0.585852 14.8027 0.875926 14.6667 1.22222 14.6667H20.7778C21.1241 14.6667 21.4141 14.8027 21.648 15.0747C21.8827 15.3457 22 15.6819 22 16.0833C22 16.4847 21.8827 16.8209 21.648 17.092C21.4141 17.364 21.1241 17.5 20.7778 17.5H1.22222ZM1.22222 10.4167C0.875926 10.4167 0.585852 10.2807 0.352 10.0087C0.117333 9.73761 0 9.40139 0 9C0 8.59861 0.117333 8.26192 0.352 7.98992C0.585852 7.71886 0.875926 7.58333 1.22222 7.58333H20.7778C21.1241 7.58333 21.4141 7.71886 21.648 7.98992C21.8827 8.26192 22 8.59861 22 9C22 9.40139 21.8827 9.73761 21.648 10.0087C21.4141 10.2807 21.1241 10.4167 20.7778 10.4167H1.22222ZM1.22222 3.33333C0.875926 3.33333 0.585852 3.19781 0.352 2.92675C0.117333 2.65475 0 2.31806 0 1.91667C0 1.51528 0.117333 1.17858 0.352 0.906584C0.585852 0.635528 0.875926 0.5 1.22222 0.5H20.7778C21.1241 0.5 21.4141 0.635528 21.648 0.906584C21.8827 1.17858 22 1.51528 22 1.91667C22 2.31806 21.8827 2.65475 21.648 2.92675C21.4141 3.19781 21.1241 3.33333 20.7778 3.33333H1.22222Z" fill="#FFFCFC"/>
</svg>
