<svg width="38" height="38" viewBox="0 0 38 38" fill="none" xmlns="http://www.w3.org/2000/svg">
    <path d="M19 0C8.512 0 0 8.512 0 19C0 29.488 8.512 38 19 38C29.488 38 38 29.488 38 19C38 8.512 29.488 0 19 0ZM26.6 20.9H20.9V26.6C20.9 27.645 20.045 28.5 19 28.5C17.955 28.5 17.1 27.645 17.1 26.6V20.9H11.4C10.355 20.9 9.5 20.045 9.5 19C9.5 17.955 10.355 17.1 11.4 17.1H17.1V11.4C17.1 10.355 17.955 9.5 19 9.5C20.045 9.5 20.9 10.355 20.9 11.4V17.1H26.6C27.645 17.1 28.5 17.955 28.5 19C28.5 20.045 27.645 20.9 26.6 20.9Z" fill="#FF4B26"/>
</svg>
