<svg width="86" height="86" viewBox="0 0 86 86" fill="none" xmlns="http://www.w3.org/2000/svg">
    <path d="M43 85C66.196 85 85 66.196 85 43C85 19.804 66.196 1 43 1C19.804 1 1 19.804 1 43C1 66.196 19.804 85 43 85Z" fill="#5F5A5A" stroke="#FFFCFC" stroke-linecap="round" stroke-linejoin="round"/>
    <path d="M41.0453 49.2376L45.2022 53.2148H50.3543V58.6809H55.8094V64H64V56.3433L49.2965 40.9254L49.406 40.7205C50.4646 37.699 50.4579 34.4121 49.3867 31.3949C48.3156 28.3777 46.2433 25.8079 43.507 24.1038C40.7816 22.4186 37.5524 21.7131 34.3628 22.1061C31.1731 22.4991 28.2177 23.9666 25.9938 26.2616C23.754 28.5717 22.3692 31.5624 22.064 34.7485C21.7588 37.9346 22.5511 41.1292 24.3123 43.8141C26.0543 46.4877 28.6733 48.4874 31.7297 49.4777C34.7861 50.4681 38.0939 50.3887 41.0981 49.2531L41.0453 49.2376Z" fill="#5F5A5A" stroke="#FFFCFC" stroke-linecap="round" stroke-linejoin="round"/>
    <path d="M31.5 34C33.433 34 35 32.433 35 30.5C35 28.567 33.433 27 31.5 27C29.567 27 28 28.567 28 30.5C28 32.433 29.567 34 31.5 34Z" fill="#5F5A5A" stroke="#FFFCFC" stroke-linecap="round" stroke-linejoin="round"/>
</svg>
