<svg width="16" height="16" viewBox="0 0 16 16" fill="none" xmlns="http://www.w3.org/2000/svg">
<path d="M8 10.1053C7.03939 10.1053 6.22286 9.85965 5.55043 9.36842C4.878 8.87719 4.54179 8.2807 4.54179 7.57895V2.52632C4.54179 1.82456 4.878 1.22807 5.55043 0.736842C6.22286 0.245614 7.03939 0 8 0C8.96062 0 9.77714 0.245614 10.4496 0.736842C11.122 1.22807 11.4582 1.82456 11.4582 2.52632V7.57895C11.4582 8.2807 11.122 8.87719 10.4496 9.36842C9.77714 9.85965 8.96062 10.1053 8 10.1053ZM8 16C7.67339 16 7.39981 15.9192 7.17925 15.7575C6.95793 15.5964 6.84726 15.3965 6.84726 15.1579V13.3895C5.06052 13.2211 3.54275 12.6807 2.29395 11.7684C1.04515 10.8561 0.286263 9.7614 0.017291 8.48421C-0.0403459 8.24561 0.0461099 8.03509 0.276657 7.85263C0.507205 7.67018 0.814601 7.57895 1.19885 7.57895C1.46782 7.57895 1.70797 7.65249 1.91931 7.79958C2.13064 7.94723 2.26513 8.12632 2.32277 8.33684C2.57253 9.3193 3.22574 10.1404 4.28242 10.8C5.3391 11.4596 6.57829 11.7895 8 11.7895C9.42171 11.7895 10.6609 11.4596 11.7176 10.8C12.7743 10.1404 13.4275 9.3193 13.6772 8.33684C13.7349 8.12632 13.8744 7.94723 14.0957 7.79958C14.3162 7.65249 14.561 7.57895 14.83 7.57895C15.195 7.57895 15.4928 7.67018 15.7233 7.85263C15.9539 8.03509 16.0403 8.24561 15.9827 8.48421C15.7137 9.7614 14.9549 10.8561 13.7061 11.7684C12.4573 12.6807 10.9395 13.2211 9.15274 13.3895V15.1579C9.15274 15.3965 9.04246 15.5964 8.8219 15.7575C8.60058 15.9192 8.32661 16 8 16Z" fill="#FF4B26"/>
</svg>
