<svg width="16" height="16" viewBox="0 0 16 16" fill="none" xmlns="http://www.w3.org/2000/svg">
<path d="M15.9642 0.685797C16.0006 0.594935 16.0095 0.495396 15.9898 0.399521C15.9701 0.303645 15.9228 0.215651 15.8536 0.146445C15.7844 0.0772393 15.6964 0.0298664 15.6005 0.0101992C15.5046 -0.00946798 15.4051 -0.000564587 15.3142 0.0358056L0.767723 5.85473H0.766723L0.314739 6.03473C0.229132 6.06888 0.15463 6.12603 0.099462 6.19986C0.044294 6.27369 0.0106074 6.36134 0.00212315 6.45311C-0.0063611 6.54489 0.0106872 6.63723 0.051385 6.71992C0.0920827 6.80262 0.154846 6.87245 0.232742 6.92172L0.642727 7.18172L0.643727 7.18372L5.63855 10.3617L8.81644 15.3566L8.81844 15.3586L9.07843 15.7686C9.12786 15.8462 9.19773 15.9087 9.28036 15.9491C9.36299 15.9895 9.45518 16.0064 9.54678 15.9978C9.63838 15.9892 9.72583 15.9556 9.79951 15.9005C9.8732 15.8454 9.93025 15.771 9.9644 15.6856L15.9642 0.685797ZM14.1313 2.57577L6.63752 10.0697L6.42253 9.73168C6.38313 9.66966 6.33056 9.61708 6.26853 9.57769L5.93054 9.36269L13.4243 1.86878L14.6022 1.39779L14.1323 2.57577H14.1313Z" fill="#FF4B26"/>
</svg>
