<svg width="15" height="13" viewBox="0 0 15 13" fill="none" xmlns="http://www.w3.org/2000/svg">
<path fill-rule="evenodd" clip-rule="evenodd" d="M0 2.6C0 1.91044 0.197544 1.24912 0.549175 0.761522C0.900806 0.273928 1.37772 1.80066e-08 1.875 1.80066e-08H8.90625C9.36102 -7.41624e-05 9.80032 0.229051 10.1423 0.644706C10.4843 1.06036 10.7057 1.63421 10.7653 2.2594L13.6809 0.4628C13.8237 0.374623 13.98 0.337303 14.1358 0.354231C14.2915 0.37116 14.4418 0.4418 14.5728 0.559731C14.7039 0.677663 14.8116 0.839145 14.8862 1.0295C14.9608 1.21986 14.9999 1.43305 15 1.6497V11.3503C14.9999 11.5668 14.9607 11.7798 14.8862 11.97C14.8116 12.1602 14.704 12.3216 14.5731 12.4395C14.4421 12.5574 14.292 12.628 14.1364 12.6451C13.9808 12.6622 13.8245 12.6251 13.6819 12.5372L10.7653 10.7406C10.7057 11.3658 10.4843 11.9396 10.1423 12.3553C9.80032 12.7709 9.36102 13.0001 8.90625 13H1.875C1.37772 13 0.900806 12.7261 0.549175 12.2385C0.197544 11.7509 0 11.0896 0 10.4V2.6ZM10.7812 9.3275L14.0625 11.3503V1.6497L10.7812 3.6725V9.3275ZM1.875 1.3C1.62636 1.3 1.3879 1.43696 1.21209 1.68076C1.03627 1.92456 0.9375 2.25522 0.9375 2.6V10.4C0.9375 10.7448 1.03627 11.0754 1.21209 11.3192C1.3879 11.563 1.62636 11.7 1.875 11.7H8.90625C9.15489 11.7 9.39335 11.563 9.56916 11.3192C9.74498 11.0754 9.84375 10.7448 9.84375 10.4V2.6C9.84375 2.25522 9.74498 1.92456 9.56916 1.68076C9.39335 1.43696 9.15489 1.3 8.90625 1.3H1.875Z" fill="#FF4B26"/>
</svg>
